<svg width="383" height="130" viewBox="0 0 383 130" fill="none" xmlns="http://www.w3.org/2000/svg">
<rect y="0.968262" width="60.4664" height="58.5159" rx="29.258" fill="white"/>
<rect y="70.7539" width="112.696" height="58.5159" rx="29.258" fill="white"/>
<path d="M163.946 70.3889C159.344 70.3889 155.214 69.3269 151.555 67.2028C147.897 65.0197 145.006 62.0695 142.882 58.3523C140.758 54.6352 139.666 50.446 139.607 45.7847V5.4268C139.607 4.06974 140.02 2.97818 140.846 2.15215C141.732 1.32611 142.823 0.913086 144.121 0.913086C145.478 0.913086 146.57 1.32611 147.396 2.15215C148.222 2.97818 148.635 4.06974 148.635 5.4268V29.323C150.7 26.8448 153.178 24.8977 156.069 23.4817C159.019 22.0066 162.235 21.2691 165.716 21.2691C170.023 21.2691 173.888 22.3606 177.31 24.5437C180.732 26.6678 183.417 29.5885 185.364 33.3056C187.37 36.9638 188.373 41.1235 188.373 45.7847C188.373 50.446 187.282 54.6352 185.099 58.3523C182.975 62.0695 180.083 65.0197 176.425 67.2028C172.767 69.3269 168.607 70.3889 163.946 70.3889ZM163.946 62.4235C166.955 62.4235 169.64 61.7155 172 60.2994C174.36 58.8244 176.219 56.8183 177.576 54.2811C178.992 51.744 179.7 48.9119 179.7 45.7847C179.7 42.5986 178.992 39.7665 177.576 37.2883C176.219 34.8102 174.36 32.8631 172 31.4471C169.64 29.972 166.955 29.2344 163.946 29.2344C160.996 29.2344 158.311 29.972 155.892 31.4471C153.532 32.8631 151.674 34.8102 150.316 37.2883C148.959 39.7665 148.281 42.5986 148.281 45.7847C148.281 48.9119 148.959 51.744 150.316 54.2811C151.674 56.8183 153.532 58.8244 155.892 60.2994C158.311 61.7155 160.996 62.4235 163.946 62.4235Z" fill="white"/>
<path d="M202.722 70.0349C200.126 70.0349 197.825 69.3269 195.819 67.9108C193.813 66.4947 192.249 64.5771 191.128 62.158C190.007 59.6799 189.446 56.8478 189.446 53.6616V5.3383C189.446 4.04024 189.859 2.97818 190.685 2.15215C191.511 1.32611 192.574 0.913086 193.872 0.913086C195.17 0.913086 196.232 1.32611 197.058 2.15215C197.884 2.97818 198.297 4.04024 198.297 5.3383V53.6616C198.297 55.8447 198.71 57.6443 199.536 59.0604C200.362 60.4764 201.424 61.1845 202.722 61.1845H204.935C206.115 61.1845 207.059 61.5975 207.767 62.4235C208.534 63.2496 208.917 64.3116 208.917 65.6097C208.917 66.9078 208.357 67.9698 207.236 68.7958C206.115 69.6219 204.669 70.0349 202.899 70.0349H202.722Z" fill="white"/>
<path d="M227.486 70.4774C223.415 70.4774 219.757 69.6219 216.511 67.9108C213.325 66.1407 210.788 63.5741 208.9 60.2109C207.071 56.8478 206.156 52.7176 206.156 47.8203V26.0483C206.156 24.7502 206.569 23.6882 207.395 22.8621C208.28 21.9771 209.372 21.5346 210.67 21.5346C211.968 21.5346 213.03 21.9771 213.856 22.8621C214.741 23.6882 215.184 24.7502 215.184 26.0483V47.8203C215.184 51.1245 215.803 53.8681 217.042 56.0512C218.281 58.1753 219.963 59.7684 222.087 60.8305C224.211 61.8335 226.601 62.335 229.256 62.335C231.793 62.335 234.035 61.8335 235.982 60.8305C237.988 59.8274 239.581 58.4704 240.762 56.7593C241.942 55.0482 242.532 53.1306 242.532 51.0065H248.107C248.107 54.6647 247.193 57.9688 245.364 60.919C243.594 63.8691 241.145 66.1997 238.018 67.9108C234.95 69.6219 231.439 70.4774 227.486 70.4774ZM247.045 70.0349C245.747 70.0349 244.656 69.6219 243.771 68.7958C242.945 67.9108 242.532 66.8192 242.532 65.5212V26.0483C242.532 24.6912 242.945 23.5997 243.771 22.7736C244.656 21.9476 245.747 21.5346 247.045 21.5346C248.402 21.5346 249.494 21.9476 250.32 22.7736C251.146 23.5997 251.559 24.6912 251.559 26.0483V65.5212C251.559 66.8192 251.146 67.9108 250.32 68.7958C249.494 69.6219 248.402 70.0349 247.045 70.0349Z" fill="white"/>
<path d="M279.583 70.3889C274.686 70.3889 270.32 69.3564 266.484 67.2913C262.708 65.1672 259.729 62.276 257.546 58.6179C255.421 54.9007 254.359 50.6525 254.359 45.8732C254.359 41.035 255.362 36.7868 257.369 33.1286C259.434 29.4115 262.266 26.5203 265.865 24.4552C269.464 22.3311 273.594 21.2691 278.256 21.2691C282.858 21.2691 286.811 22.3016 290.115 24.3667C293.419 26.3728 295.927 29.1754 297.638 32.7746C299.408 36.3148 300.293 40.4155 300.293 45.0767C300.293 46.1978 299.91 47.1418 299.143 47.9088C298.375 48.6169 297.402 48.9709 296.222 48.9709H260.555V41.8906H295.956L292.328 44.3687C292.269 41.4185 291.679 38.7929 290.558 36.4918C289.437 34.1317 287.843 32.2731 285.778 30.916C283.713 29.559 281.206 28.8804 278.256 28.8804C274.892 28.8804 272.001 29.618 269.582 31.093C267.222 32.5681 265.422 34.6037 264.183 37.1998C262.944 39.737 262.325 42.6281 262.325 45.8732C262.325 49.1184 263.062 52.0095 264.537 54.5467C266.012 57.0838 268.048 59.0899 270.644 60.5649C273.24 62.04 276.22 62.7776 279.583 62.7776C281.412 62.7776 283.271 62.453 285.159 61.804C287.106 61.096 288.67 60.2994 289.85 59.4144C290.735 58.7654 291.679 58.4409 292.682 58.4409C293.744 58.3818 294.658 58.6769 295.425 59.3259C296.428 60.2109 296.959 61.1845 297.018 62.2465C297.077 63.3086 296.605 64.2231 295.602 64.9902C293.596 66.5832 291.089 67.8813 288.08 68.8843C285.129 69.8874 282.297 70.3889 279.583 70.3889Z" fill="white"/>
<path d="M159.662 129.181C154.941 129.181 150.723 128.119 147.005 125.995C143.347 123.812 140.456 120.891 138.332 117.233C136.267 113.516 135.234 109.326 135.234 104.665C135.234 99.886 136.267 95.6378 138.332 91.9206C140.397 88.2034 143.229 85.3123 146.828 83.2472C150.428 81.1231 154.558 80.0611 159.219 80.0611C162.7 80.0611 165.886 80.7396 168.777 82.0967C171.669 83.3947 174.265 85.3713 176.566 88.0264C177.392 88.9705 177.687 89.944 177.451 90.9471C177.215 91.9501 176.566 92.8352 175.504 93.6022C174.678 94.1922 173.763 94.3987 172.76 94.2217C171.757 93.9857 170.843 93.4547 170.017 92.6287C167.125 89.5605 163.526 88.0264 159.219 88.0264C156.21 88.0264 153.555 88.7345 151.254 90.1505C148.953 91.5076 147.153 93.4252 145.855 95.9033C144.557 98.3814 143.908 101.302 143.908 104.665C143.908 107.851 144.557 110.684 145.855 113.162C147.212 115.64 149.071 117.616 151.431 119.091C153.791 120.507 156.534 121.216 159.662 121.216C161.727 121.216 163.526 120.98 165.06 120.508C166.653 119.976 168.099 119.18 169.397 118.118C170.341 117.351 171.315 116.938 172.318 116.879C173.321 116.761 174.206 117.026 174.973 117.675C175.976 118.501 176.536 119.445 176.654 120.508C176.772 121.511 176.418 122.425 175.592 123.251C171.344 127.204 166.034 129.181 159.662 129.181Z" fill="white"/>
<path d="M202.195 129.181C197.416 129.181 193.198 128.148 189.539 126.083C185.881 123.959 182.99 121.068 180.866 117.41C178.801 113.693 177.768 109.444 177.768 104.665C177.768 99.827 178.801 95.5788 180.866 91.9206C182.99 88.2034 185.881 85.3123 189.539 83.2472C193.198 81.1231 197.416 80.0611 202.195 80.0611C206.916 80.0611 211.105 81.1231 214.763 83.2472C218.421 85.3123 221.283 88.2034 223.348 91.9206C225.472 95.5788 226.534 99.827 226.534 104.665C226.534 109.444 225.502 113.693 223.436 117.41C221.371 121.068 218.51 123.959 214.852 126.083C211.193 128.148 206.975 129.181 202.195 129.181ZM202.195 121.216C205.264 121.216 207.978 120.507 210.338 119.091C212.698 117.675 214.527 115.728 215.825 113.25C217.182 110.772 217.861 107.91 217.861 104.665C217.861 101.42 217.182 98.5584 215.825 96.0803C214.527 93.5432 212.698 91.5666 210.338 90.1505C207.978 88.7345 205.264 88.0264 202.195 88.0264C199.127 88.0264 196.413 88.7345 194.053 90.1505C191.693 91.5666 189.834 93.5432 188.477 96.0803C187.12 98.5584 186.442 101.42 186.442 104.665C186.442 107.91 187.12 110.772 188.477 113.25C189.834 115.728 191.693 117.675 194.053 119.091C196.413 120.507 199.127 121.216 202.195 121.216Z" fill="white"/>
<path d="M249.705 129.269C245.634 129.269 241.976 128.414 238.73 126.703C235.544 124.933 233.007 122.366 231.119 119.003C229.29 115.64 228.375 111.51 228.375 106.612V84.8403C228.375 83.5422 228.788 82.4802 229.614 81.6541C230.5 80.7691 231.591 80.3266 232.889 80.3266C234.187 80.3266 235.249 80.7691 236.075 81.6541C236.96 82.4802 237.403 83.5422 237.403 84.8403V106.612C237.403 109.916 238.022 112.66 239.261 114.843C240.5 116.967 242.182 118.56 244.306 119.622C246.43 120.626 248.82 121.127 251.475 121.127C254.012 121.127 256.254 120.626 258.201 119.622C260.207 118.619 261.801 117.262 262.981 115.551C264.161 113.84 264.751 111.923 264.751 109.798H270.326C270.326 113.457 269.412 116.761 267.583 119.711C265.813 122.661 263.364 124.992 260.237 126.703C257.169 128.414 253.658 129.269 249.705 129.269ZM269.264 128.827C267.966 128.827 266.875 128.414 265.99 127.588C265.164 126.703 264.751 125.611 264.751 124.313V84.8403C264.751 83.4832 265.164 82.3917 265.99 81.5656C266.875 80.7396 267.966 80.3266 269.264 80.3266C270.621 80.3266 271.713 80.7396 272.539 81.5656C273.365 82.3917 273.778 83.4832 273.778 84.8403V124.313C273.778 125.611 273.365 126.703 272.539 127.588C271.713 128.414 270.621 128.827 269.264 128.827Z" fill="white"/>
<path d="M301.006 129.181C296.285 129.181 292.067 128.119 288.349 125.995C284.691 123.812 281.8 120.891 279.676 117.233C277.611 113.516 276.578 109.326 276.578 104.665C276.578 99.886 277.611 95.6378 279.676 91.9206C281.741 88.2034 284.573 85.3123 288.172 83.2472C291.772 81.1231 295.902 80.0611 300.563 80.0611C304.044 80.0611 307.23 80.7396 310.122 82.0967C313.013 83.3947 315.609 85.3713 317.91 88.0264C318.736 88.9705 319.031 89.944 318.795 90.9471C318.559 91.9501 317.91 92.8352 316.848 93.6022C316.022 94.1922 315.107 94.3987 314.104 94.2217C313.101 93.9857 312.187 93.4547 311.361 92.6287C308.469 89.5605 304.87 88.0264 300.563 88.0264C297.554 88.0264 294.899 88.7345 292.598 90.1505C290.297 91.5076 288.497 93.4252 287.199 95.9033C285.901 98.3814 285.252 101.302 285.252 104.665C285.252 107.851 285.901 110.684 287.199 113.162C288.556 115.64 290.415 117.616 292.775 119.091C295.135 120.507 297.878 121.216 301.006 121.216C303.071 121.216 304.87 120.98 306.404 120.508C307.997 119.976 309.443 119.18 310.741 118.118C311.685 117.351 312.659 116.938 313.662 116.879C314.665 116.761 315.55 117.026 316.317 117.675C317.32 118.501 317.88 119.445 317.998 120.508C318.116 121.511 317.762 122.425 316.936 123.251C312.688 127.204 307.378 129.181 301.006 129.181Z" fill="white"/>
<path d="M362.479 128.915C361.181 128.915 360.09 128.502 359.205 127.676C358.379 126.791 357.966 125.7 357.966 124.402V102.63C357.966 99.2665 357.346 96.5228 356.107 94.3987C354.868 92.2746 353.186 90.7111 351.062 89.708C348.997 88.646 346.608 88.1149 343.893 88.1149C341.415 88.1149 339.173 88.6165 337.167 89.6195C335.161 90.6226 333.568 91.9796 332.388 93.6907C331.208 95.3428 330.618 97.2604 330.618 99.4435H325.042C325.042 95.7263 325.927 92.4221 327.697 89.531C329.526 86.5809 332.004 84.2503 335.132 82.5392C338.259 80.8281 341.769 79.9725 345.664 79.9725C349.735 79.9725 353.363 80.8576 356.55 82.6277C359.795 84.3388 362.332 86.8759 364.161 90.239C366.049 93.6022 366.993 97.7324 366.993 102.63V124.402C366.993 125.7 366.551 126.791 365.666 127.676C364.839 128.502 363.777 128.915 362.479 128.915ZM326.104 128.915C324.806 128.915 323.715 128.502 322.829 127.676C322.003 126.791 321.59 125.7 321.59 124.402V84.9288C321.59 83.5717 322.003 82.4802 322.829 81.6541C323.715 80.8281 324.806 80.4151 326.104 80.4151C327.461 80.4151 328.553 80.8281 329.379 81.6541C330.205 82.4802 330.618 83.5717 330.618 84.9288V124.402C330.618 125.7 330.205 126.791 329.379 127.676C328.553 128.502 327.461 128.915 326.104 128.915ZM326.104 111.215C324.806 111.215 323.715 110.802 322.829 109.975C322.003 109.09 321.59 107.999 321.59 106.701V64.2188C321.59 62.8617 322.003 61.7702 322.829 60.9441C323.715 60.1181 324.806 59.7051 326.104 59.7051C327.461 59.7051 328.553 60.1181 329.379 60.9441C330.205 61.7702 330.618 62.8617 330.618 64.2188V106.701C330.618 107.999 330.205 109.09 329.379 109.975C328.553 110.802 327.461 111.215 326.104 111.215Z" fill="white"/>
<path d="M376.894 129.269C375.242 129.269 373.796 128.679 372.557 127.499C371.377 126.26 370.787 124.815 370.787 123.163C370.787 121.452 371.377 120.006 372.557 118.826C373.796 117.587 375.242 116.967 376.894 116.967C378.605 116.967 380.051 117.587 381.231 118.826C382.411 120.006 383.001 121.452 383.001 123.163C383.001 124.815 382.411 126.26 381.231 127.499C380.051 128.679 378.605 129.269 376.894 129.269Z" fill="white"/>
</svg>
